<?xml version="1.0" encoding="UTF-8"?>
<svg id="Layer_2" data-name="Layer 2" xmlns="http://www.w3.org/2000/svg" viewBox="0 0 157.74 178.53">
  <defs>
    <style>
      .cls-1, .cls-2 {
        fill: #fff;
      }

      .cls-3, .cls-2, .cls-4 {
        stroke: #f7941d;
      }

      .cls-3, .cls-5 {
        fill: none;
        stroke-miterlimit: 10;
      }

      .cls-2, .cls-4 {
        stroke-linecap: round;
        stroke-linejoin: round;
      }

      .cls-6 {
        fill: #f1f2f2;
      }

      .cls-7 {
        fill: #f7941d;
      }

      .cls-4 {
        fill: #ffdcb6;
      }

      .cls-5 {
        stroke: #f1f2f2;
      }
    </style>
  </defs>
  <g id="Layer_1-2" data-name="Layer 1">
    <g>
      <path class="cls-4" d="m98.48,24.08l-64.32-3.25c-7.99-.4-14.8,5.75-15.2,13.74l-4.73,93.71c-.4,7.99,5.75,14.8,13.74,15.2l76.84,3.88c7.99.4,14.8-5.75,15.2-13.74l3.95-78.32c.11-2.25-.58-4.46-1.96-6.24l-16.56-21.35c-1.68-2.17-4.22-3.49-6.96-3.63Z"/>
      <path class="cls-3" d="m.3,111.4s15.23-11.55,20.48-24.69"/>
      <path class="cls-3" d="m157.65,104.9s-18.13,3.09-29.51-24.5"/>
      <ellipse class="cls-6" cx="77.96" cy="172.96" rx="67.41" ry="5.58"/>
      <line class="cls-3" x1="65.8" y1="174.41" x2="65.8" y2="147.24"/>
      <line class="cls-3" x1="88.99" y1="171.96" x2="88.99" y2="142.78"/>
      <path class="cls-2" d="m95.82,21.05l-65.53,4.08c-8.57.53-15.08,7.91-14.55,16.48l6.26,100.47c.53,8.57,7.91,15.08,16.48,14.55l82.38-5.13c8.57-.53,15.08-7.91,14.55-16.48l-5.06-81.21c-.26-4.2-2.02-8.17-4.96-11.18l-15.88-16.31c-3.58-3.67-8.58-5.6-13.69-5.28Z"/>
      <line class="cls-2" x1="19.15" y1=".5" x2="19.15" y2="10.87"/>
      <line class="cls-2" x1="2.59" y1="4.35" x2="12.42" y2="14.28"/>
      <line class="cls-2" x1="1.04" y1="20.81" x2="9.28" y2="20.81"/>
      <g>
        <line class="cls-5" x1="33.8" y1="103.89" x2="95.93" y2="100.11"/>
        <line class="cls-5" x1="33.37" y1="96.83" x2="117.36" y2="91.73"/>
        <line class="cls-5" x1="34.68" y1="118.35" x2="96.81" y2="114.58"/>
        <line class="cls-5" x1="34.49" y1="110.74" x2="109.5" y2="106.18"/>
        <line class="cls-5" x1="31.4" y1="74.95" x2="93.53" y2="71.18"/>
        <line class="cls-5" x1="30.97" y1="67.89" x2="114.96" y2="62.79"/>
        <line class="cls-5" x1="32.28" y1="89.41" x2="94.41" y2="85.64"/>
        <line class="cls-5" x1="32.09" y1="81.8" x2="107.1" y2="77.25"/>
        <line class="cls-5" x1="30.55" y1="46.23" x2="92.68" y2="42.46"/>
        <line class="cls-5" x1="31.43" y1="60.69" x2="93.56" y2="56.92"/>
        <line class="cls-5" x1="31.24" y1="53.08" x2="106.25" y2="48.53"/>
      </g>
      <ellipse class="cls-1" cx="77.2" cy="75.63" rx="29.9" ry="31.29"/>
      <ellipse class="cls-7" cx="59.02" cy="69.98" rx="3.45" ry="4.15"/>
      <ellipse class="cls-7" cx="95.76" cy="68.49" rx="3.45" ry="4.15"/>
      <path class="cls-3" d="m61.21,95.98s26.05,15.07,41.52-8.88"/>
    </g>
  </g>
</svg>