<?xml version="1.0" encoding="UTF-8"?>
<svg id="Layer_2" data-name="Layer 2" xmlns="http://www.w3.org/2000/svg" viewBox="0 0 111.26 138.09">
  <defs>
    <style>
      .cls-1 {
        fill: #fff;
        stroke: #f7941d;
        stroke-linecap: round;
        stroke-linejoin: round;
        stroke-width: 3px;
      }

      .cls-2 {
        fill: #f1f2f2;
      }

      .cls-3 {
        fill: #f7941d;
      }
    </style>
  </defs>
  <g id="Layer_1-2" data-name="Layer 1">
    <g>
      <ellipse class="cls-2" cx="55.63" cy="132.52" rx="33.8" ry="5.58"/>
      <circle class="cls-1" cx="55.63" cy="55.63" r="54.13"/>
      <path class="cls-3" d="m49.09,73.18c-1.58.03-2.86-.52-3.93-1.58-3.92-3.85-7.85-7.68-11.74-11.55-2.16-2.15-2.22-5.4-.19-7.5,2.04-2.12,5.37-2.13,7.6.02,2.42,2.33,4.85,4.66,7.17,7.09.85.89,1.27.74,2.06-.04,6.71-6.62,13.47-13.18,20.22-19.76,2.32-2.26,5.44-2.37,7.59-.3,2.14,2.07,2.24,5.33.12,7.48-2.32,2.37-4.72,4.66-7.09,6.99-5.9,5.8-11.81,11.6-17.69,17.42-1.17,1.15-2.5,1.82-4.1,1.74Z"/>
    </g>
  </g>
</svg>