<?xml version="1.0" encoding="UTF-8"?>
<svg id="Layer_2" data-name="Layer 2" xmlns="http://www.w3.org/2000/svg" viewBox="0 0 139.16 110.87">
  <defs>
    <style>
      .cls-1 {
        fill: none;
        stroke-miterlimit: 10;
      }

      .cls-1, .cls-2, .cls-3, .cls-4, .cls-5 {
        stroke: #f7941d;
      }

      .cls-2 {
        fill: #fff;
      }

      .cls-2, .cls-3, .cls-4, .cls-5 {
        stroke-linecap: round;
        stroke-linejoin: round;
      }

      .cls-6 {
        fill: #f1f2f2;
      }

      .cls-7 {
        fill: #f7941d;
      }

      .cls-3 {
        fill: #ffe5cc;
      }

      .cls-4 {
        fill: #ffdcb6;
      }

      .cls-5 {
        fill: #ffedde;
      }
    </style>
  </defs>
  <g id="Layer_1-2" data-name="Layer 1">
    <g>
      <ellipse class="cls-6" cx="67.41" cy="105.3" rx="67.41" ry="5.58"/>
      <line class="cls-1" x1="55.25" y1="106.75" x2="55.25" y2="79.58"/>
      <line class="cls-1" x1="78.44" y1="104.3" x2="78.44" y2="75.12"/>
      <polygon class="cls-2" points="104.31 25.18 104.31 85.52 14.52 85.52 14.52 25.5 36.54 25.42 104.31 25.18"/>
      <polygon class="cls-2" points="126.23 15.22 126.23 77.19 105.55 85.52 104.31 85.52 104.31 25.18 126.23 15.22"/>
      <polygon class="cls-3" points="126.23 15.22 104.31 25.18 36.54 25.42 36.54 15.22 126.23 15.22"/>
      <polygon class="cls-4" points="36.54 15.22 36.54 25.42 14.52 25.5 36.54 15.22"/>
      <polygon class="cls-5" points="14.84 25.33 1.47 40.34 91.84 40.34 104.31 25.33 14.84 25.33"/>
      <polygon class="cls-5" points="104.31 25.18 116.76 37.42 138.66 29.18 126.23 15.22 104.31 25.18"/>
      <polygon class="cls-4" points="14.9 24.95 2.95 12.11 25.1 4.02 36.54 15.22 14.9 24.95"/>
      <polygon class="cls-5" points="49.33 .5 138.66 .5 126.36 15.22 36.71 15.22 49.33 .5"/>
      <ellipse class="cls-7" cx="42" cy="56.68" rx="2.34" ry="2.81"/>
      <ellipse class="cls-7" cx="74.47" cy="55.66" rx="2.34" ry="2.81"/>
      <line class="cls-1" x1="44.39" y1="74.64" x2="72.07" y2="70.83"/>
    </g>
  </g>
</svg>