<?xml version="1.0" encoding="UTF-8"?>
<svg id="Layer_2" data-name="Layer 2" xmlns="http://www.w3.org/2000/svg" viewBox="0 0 140.21 167.69">
  <defs>
    <style>
      .cls-1 {
        fill: #fff;
      }

      .cls-1, .cls-2 {
        stroke: #f7941d;
        stroke-linecap: round;
        stroke-linejoin: round;
      }

      .cls-3 {
        fill: #f1f2f2;
      }

      .cls-2 {
        fill: #ffdcb6;
      }
    </style>
  </defs>
  <g id="Layer_1-2" data-name="Layer 1">
    <g>
      <path class="cls-1" d="m61.93,99.97c.11-.6.56-1.09,1.16-1.23l4.65-1.16c.07-.95.11-1.85.11-2.79s-.04-1.89-.11-2.79l-4.65-1.16c-.6-.18-1.05-.63-1.16-1.25-.28-1.4-.67-2.84-1.12-4.19-.21-.56-.07-1.23.39-1.65l3.42-3.32c-.77-1.67-1.72-3.28-2.79-4.83l-4.61,1.3c-.56.18-1.23,0-1.6-.49-.95-1.09-1.95-2.09-3.07-3.04-.46-.42-.63-1.05-.49-1.65l1.33-4.61c-1.54-1.05-3.14-2-4.83-2.79l-3.32,3.46c-.46.46-1.09.6-1.67.39-1.33-.49-2.76-.84-4.19-1.12-.6-.11-1.09-.56-1.23-1.16l-1.16-4.65c-1.85-.18-3.77-.18-5.6,0l-1.16,4.65c-.18.6-.63,1.05-1.25,1.16-1.44.28-2.84.63-4.16,1.12-.6.21-1.25.07-1.67-.39l-3.32-3.46c-1.67.81-3.32,1.75-4.83,2.79l1.3,4.61c.18.6,0,1.23-.49,1.65-1.09.95-2.09,1.95-3.04,3.04-.42.49-1.05.67-1.65.49l-4.61-1.3c-1.05,1.51-2,3.14-2.79,4.83l3.46,3.32c.46.42.6,1.09.39,1.67-.49,1.33-.84,2.72-1.12,4.16-.11.63-.56,1.09-1.16,1.25l-4.65,1.16c-.11.91-.14,1.85-.14,2.79s.04,1.85.14,2.79l4.65,1.16c.6.14,1.05.63,1.16,1.23.28,1.44.63,2.86,1.12,4.19.21.6.07,1.23-.39,1.67l-3.46,3.32c.81,1.67,1.75,3.28,2.79,4.83l4.61-1.33c.6-.18,1.23.04,1.65.49.95,1.09,1.95,2.14,3.04,3.07.49.39.67,1.05.49,1.6l-1.3,4.61c1.54,1.09,3.14,2.02,4.83,2.79l3.32-3.42c.42-.46,1.09-.6,1.65-.39,1.37.46,2.76.84,4.19,1.12.63.11,1.09.56,1.25,1.16l1.16,4.65c1.85.14,3.74.14,5.6,0l1.16-4.65c.14-.6.63-1.05,1.23-1.16,1.44-.28,2.86-.67,4.19-1.12.6-.21,1.23-.07,1.67.39l3.32,3.42c1.67-.77,3.28-1.72,4.83-2.79l-1.33-4.61c-.14-.56.04-1.23.49-1.6,1.12-.95,2.14-2,3.07-3.07.39-.46,1.05-.67,1.6-.49l4.61,1.33c1.09-1.54,2.02-3.14,2.79-4.83l-3.42-3.32c-.46-.46-.6-1.09-.39-1.67.46-1.33.84-2.76,1.12-4.19Zm-27.75,11.9c-9.44,0-17.08-7.69-17.08-17.08s7.65-17.08,17.08-17.08,17.08,7.65,17.08,17.08c.02,9.41-7.67,17.08-17.08,17.08Z"/>
      <path class="cls-1" d="m133.8,111.6c.11-.6.56-1.09,1.16-1.23l4.65-1.19c.07-.91.11-1.85.11-2.76s-.04-1.89-.11-2.79l-4.65-1.19c-.6-.14-1.05-.63-1.16-1.23-.28-1.44-.67-2.84-1.12-4.19-.21-.56-.07-1.23.39-1.65l3.46-3.32c-.81-1.67-1.75-3.32-2.79-4.86l-4.61,1.33c-.6.18-1.23,0-1.65-.49-.95-1.09-1.95-2.14-3.07-3.04-.46-.42-.63-1.05-.46-1.65l1.3-4.61c-1.51-1.09-3.14-2-4.83-2.79l-3.32,3.46c-.46.42-1.09.6-1.67.39-1.33-.49-2.72-.88-4.16-1.12-.63-.11-1.12-.56-1.25-1.16l-1.16-4.69c-1.85-.14-3.74-.14-5.6,0l-1.16,4.69c-.14.6-.63,1.05-1.25,1.16-1.4.25-2.84.63-4.16,1.12-.6.21-1.23.03-1.67-.39l-3.32-3.46c-1.67.81-3.28,1.75-4.83,2.79l1.33,4.61c.14.6-.04,1.23-.49,1.65-1.12.91-2.14,1.95-3.07,3.04-.39.46-1.05.67-1.65.49l-4.61-1.33c-1.05,1.54-2,3.14-2.79,4.83l3.46,3.35c.46.42.6,1.09.39,1.65-.46,1.37-.84,2.76-1.12,4.19-.11.6-.56,1.09-1.16,1.23l-4.65,1.19c-.07.91-.11,1.85-.11,2.79s.04,1.85.11,2.76l4.65,1.19c.6.14,1.05.63,1.16,1.23.28,1.44.67,2.84,1.12,4.19.21.6.07,1.23-.39,1.65l-3.46,3.35c.81,1.67,1.75,3.28,2.79,4.83l4.61-1.33c.6-.18,1.25.04,1.65.49.95,1.09,1.95,2.14,3.07,3.07.46.39.63,1.02.49,1.6l-1.33,4.61c1.54,1.09,3.14,2.02,4.83,2.79l3.32-3.42c.46-.46,1.09-.6,1.67-.42,1.33.49,2.76.88,4.16,1.12.63.14,1.12.6,1.25,1.19l1.16,4.65c1.85.14,3.74.14,5.6,0l1.16-4.65c.14-.6.63-1.05,1.25-1.19,1.44-.25,2.84-.63,4.16-1.12.6-.18,1.25-.04,1.67.42l3.32,3.42c1.67-.81,3.28-1.72,4.83-2.79l-1.3-4.61c-.18-.6,0-1.23.46-1.6,1.12-.95,2.14-2,3.07-3.07.42-.46,1.05-.67,1.65-.49l4.61,1.33c1.05-1.54,2-3.14,2.79-4.83l-3.46-3.35c-.46-.42-.6-1.05-.39-1.65.46-1.35.84-2.75,1.12-4.19h0Zm-27.75,11.89c-9.41,0-17.08-7.65-17.08-17.06s7.69-17.08,17.08-17.08,17.08,7.65,17.08,17.08-7.65,17.06-17.08,17.06Z"/>
      <path class="cls-2" d="m108.29,39.35c.11-.63.56-1.09,1.16-1.25l4.65-1.16c.11-.91.14-1.85.14-2.79s-.03-1.85-.14-2.79l-4.65-1.16c-.6-.14-1.05-.63-1.16-1.23-.28-1.44-.63-2.86-1.12-4.19-.21-.6-.04-1.23.39-1.67l3.46-3.32c-.81-1.67-1.75-3.28-2.79-4.83l-4.62,1.33c-.6.14-1.23-.04-1.65-.49-.95-1.12-1.95-2.14-3.04-3.07-.49-.39-.67-1.05-.49-1.6l1.3-4.65c-1.51-1.05-3.14-2-4.83-2.76l-3.32,3.42c-.42.46-1.09.6-1.65.39-1.37-.46-2.76-.84-4.19-1.12-.6-.11-1.09-.56-1.25-1.16l-1.16-4.65c-1.85-.14-3.74-.14-5.6,0l-1.16,4.65c-.14.6-.63,1.05-1.23,1.16-1.44.28-2.84.67-4.19,1.12-.6.21-1.23.07-1.65-.39l-3.35-3.42c-1.67.77-3.28,1.72-4.83,2.76l1.33,4.65c.18.6-.03,1.23-.49,1.6-1.12.95-2.14,1.95-3.07,3.07-.39.46-1.05.63-1.6.49l-4.61-1.33c-1.09,1.54-2.02,3.14-2.79,4.83l3.42,3.32c.46.46.6,1.09.39,1.67-.46,1.33-.84,2.76-1.09,4.19-.14.6-.6,1.09-1.19,1.23l-4.65,1.16c-.07.95-.11,1.85-.11,2.79s.04,1.89.11,2.79l4.65,1.16c.6.18,1.05.63,1.19,1.25.25,1.44.63,2.84,1.09,4.16.21.6.07,1.25-.39,1.67l-3.42,3.32c.77,1.67,1.72,3.32,2.79,4.83l4.61-1.3c.6-.18,1.23,0,1.6.49.95,1.09,1.95,2.09,3.07,3.04.46.42.67,1.05.49,1.65l-1.33,4.61c1.54,1.05,3.14,2,4.83,2.79l3.35-3.46c.42-.46,1.05-.6,1.65-.39,1.33.49,2.76.84,4.19,1.12.6.11,1.09.56,1.23,1.16l1.16,4.65c1.85.18,3.74.18,5.6,0l1.16-4.65c.18-.6.67-1.05,1.25-1.16,1.44-.28,2.84-.67,4.19-1.12.56-.21,1.23-.07,1.65.39l3.32,3.46c1.67-.81,3.32-1.75,4.83-2.79l-1.3-4.61c-.18-.6,0-1.23.49-1.65,1.09-.95,2.09-1.95,3.04-3.04.42-.49,1.05-.67,1.65-.49l4.61,1.3c1.05-1.51,2-3.14,2.79-4.83l-3.46-3.32c-.42-.42-.6-1.09-.39-1.65.5-1.36.85-2.75,1.13-4.19h0Zm-27.76,11.88c-9.41,0-17.08-7.65-17.08-17.08s7.69-17.08,17.08-17.08,17.08,7.69,17.08,17.08c.02,9.43-7.65,17.08-17.08,17.08Z"/>
    </g>
    <ellipse class="cls-3" cx="70.11" cy="162.65" rx="60.95" ry="5.04"/>
  </g>
</svg>